<svg width="15" height="15" viewBox="0 0 15 15" fill="none" xmlns="http://www.w3.org/2000/svg">
<path d="M12.0595 8.19054H8.19048V12.0596C8.19048 12.2648 8.10895 12.4616 7.96383 12.6068C7.81871 12.7519 7.62189 12.8334 7.41667 12.8334C7.21144 12.8334 7.01462 12.7519 6.8695 12.6068C6.72438 12.4616 6.64286 12.2648 6.64286 12.0596V8.19054H2.77381C2.56858 8.19054 2.37176 8.10901 2.22664 7.96389C2.08153 7.81878 2 7.62195 2 7.41673C2 7.2115 2.08153 7.01468 2.22664 6.86956C2.37176 6.72444 2.56858 6.64292 2.77381 6.64292H6.64286V2.77387C6.64286 2.56864 6.72438 2.37182 6.8695 2.2267C7.01462 2.08159 7.21144 2.00006 7.41667 2.00006C7.62189 2.00006 7.81871 2.08159 7.96383 2.2267C8.10895 2.37182 8.19048 2.56864 8.19048 2.77387V6.64292H12.0595C12.2648 6.64292 12.4616 6.72444 12.6067 6.86956C12.7518 7.01468 12.8333 7.2115 12.8333 7.41673C12.8333 7.62195 12.7518 7.81878 12.6067 7.96389C12.4616 8.10901 12.2648 8.19054 12.0595 8.19054Z" fill="#F24E1E"/>
</svg>
