<svg width="14" height="16" viewBox="0 0 14 16" fill="none" xmlns="http://www.w3.org/2000/svg">
<path d="M9.67897 15.4889C9.67897 15.6068 9.63323 15.7199 9.55182 15.8032C9.47041 15.8866 9.36 15.9334 9.24486 15.9334H4.61444C4.49931 15.9334 4.3889 15.8866 4.30749 15.8032C4.22608 15.7199 4.18034 15.6068 4.18034 15.4889C4.18034 15.3711 4.22608 15.258 4.30749 15.1747C4.3889 15.0913 4.49931 15.0445 4.61444 15.0445H9.24486C9.36 15.0445 9.47041 15.0913 9.55182 15.1747C9.63323 15.258 9.67897 15.3711 9.67897 15.4889ZM13.5938 13.0445C13.5061 13.2027 13.3787 13.3342 13.2248 13.4253C13.071 13.5165 12.8962 13.564 12.7184 13.563H1.14163C0.963583 13.5626 0.788781 13.5142 0.63484 13.4226C0.480899 13.331 0.353257 13.1995 0.264779 13.0413C0.176301 12.8831 0.130113 12.7039 0.130869 12.5216C0.131624 12.3393 0.179298 12.1604 0.269085 12.003C0.677864 11.2815 1.28633 9.24745 1.28633 6.60004C1.28633 5.06768 1.88089 3.59808 2.93922 2.51454C3.99755 1.43099 5.43295 0.822266 6.92965 0.822266C8.42636 0.822266 9.86176 1.43099 10.9201 2.51454C11.9784 3.59808 12.573 5.06768 12.573 6.60004C12.573 9.24671 13.1822 11.2815 13.5917 12.003C13.6824 12.1607 13.7305 12.3404 13.7309 12.5234C13.7312 12.7065 13.6839 12.8864 13.5938 13.0445ZM12.8407 12.4519C12.293 11.4889 11.7048 9.24301 11.7048 6.60004C11.7048 5.30343 11.2017 4.05992 10.3062 3.14308C9.41067 2.22623 8.19609 1.71115 6.92965 1.71115C5.66321 1.71115 4.44864 2.22623 3.55313 3.14308C2.65763 4.05992 2.15453 5.30343 2.15453 6.60004C2.15453 9.24375 1.5656 11.4889 1.01791 12.4519C1.00521 12.4744 0.998524 12.5 0.998524 12.526C0.998524 12.552 1.00521 12.5775 1.01791 12.6C1.02983 12.6227 1.0476 12.6416 1.06928 12.6547C1.09097 12.6678 1.11575 12.6745 1.14091 12.6741H12.7177C12.7428 12.6745 12.7676 12.6678 12.7893 12.6547C12.811 12.6416 12.8288 12.6227 12.8407 12.6C12.8534 12.5775 12.8601 12.552 12.8601 12.526C12.8601 12.5 12.8534 12.4744 12.8407 12.4519Z" fill="white"/>
</svg>
