<svg width="15" height="15" viewBox="0 0 15 15" fill="none" xmlns="http://www.w3.org/2000/svg">
<path d="M13.6362 2.09458L10.2333 2.09459V1.24737C10.2333 1.0125 10.0431 0.822266 9.80826 0.822266C9.57344 0.822266 9.38326 1.0125 9.38326 1.24737V2.09438H5.98326V1.24737C5.98326 1.0125 5.79307 0.822266 5.55826 0.822266C5.32344 0.822266 5.13326 1.0125 5.13326 1.24737V2.09438H1.73623C1.26682 2.09438 0.88623 2.47505 0.88623 2.94458V13.5721C0.88623 14.0416 1.26682 14.4223 1.73623 14.4223H13.6362C14.1056 14.4223 14.4862 14.0416 14.4862 13.5721V2.94458C14.4862 2.47525 14.1056 2.09458 13.6362 2.09458ZM13.6362 13.5721H1.73623V2.94458H5.13326V3.37286C5.13326 3.60772 5.32344 3.79796 5.55826 3.79796C5.79307 3.79796 5.98326 3.60772 5.98326 3.37286V2.94479H9.38326V3.37308C9.38326 3.60794 9.57344 3.79818 9.80826 3.79818C10.0431 3.79818 10.2333 3.60794 10.2333 3.37308V2.94479H13.6362V13.5721ZM10.6612 7.62087H11.5112C11.7458 7.62087 11.9362 7.43043 11.9362 7.19577V6.34557C11.9362 6.11092 11.7458 5.92047 11.5112 5.92047H10.6612C10.4266 5.92047 10.2362 6.11092 10.2362 6.34557V7.19577C10.2362 7.43043 10.4266 7.62087 10.6612 7.62087ZM10.6612 11.0215H11.5112C11.7458 11.0215 11.9362 10.8312 11.9362 10.5964V9.74616C11.9362 9.5115 11.7458 9.32106 11.5112 9.32106H10.6612C10.4266 9.32106 10.2362 9.5115 10.2362 9.74616V10.5964C10.2362 10.8314 10.4266 11.0215 10.6612 11.0215ZM8.11123 9.32106H7.26123C7.02663 9.32106 6.83623 9.5115 6.83623 9.74616V10.5964C6.83623 10.8312 7.02663 11.0215 7.26123 11.0215H8.11123C8.34583 11.0215 8.53623 10.8312 8.53623 10.5964V9.74616C8.53623 9.51171 8.34583 9.32106 8.11123 9.32106ZM8.11123 5.92047H7.26123C7.02663 5.92047 6.83623 6.11092 6.83623 6.34557V7.19577C6.83623 7.43043 7.02663 7.62087 7.26123 7.62087H8.11123C8.34583 7.62087 8.53623 7.43043 8.53623 7.19577V6.34557C8.53623 6.1107 8.34583 5.92047 8.11123 5.92047ZM4.71123 5.92047H3.86123C3.62663 5.92047 3.43623 6.11092 3.43623 6.34557V7.19577C3.43623 7.43043 3.62663 7.62087 3.86123 7.62087H4.71123C4.94583 7.62087 5.13623 7.43043 5.13623 7.19577V6.34557C5.13623 6.1107 4.94583 5.92047 4.71123 5.92047ZM4.71123 9.32106H3.86123C3.62663 9.32106 3.43623 9.5115 3.43623 9.74616V10.5964C3.43623 10.8312 3.62663 11.0215 3.86123 11.0215H4.71123C4.94583 11.0215 5.13623 10.8312 5.13623 10.5964V9.74616C5.13623 9.51171 4.94583 9.32106 4.71123 9.32106Z" fill="#F8F8FB"/>
</svg>
