<svg width="64" height="59" viewBox="0 0 64 59" fill="none" xmlns="http://www.w3.org/2000/svg">
<path d="M63.25 32.9662V17.8243C63.25 13.3622 61.4774 9.0829 58.3223 5.92773C55.1671 2.77256 50.8878 1 46.4257 1H17.8243C13.3622 1 9.0829 2.77256 5.92773 5.92773C2.77256 9.0829 1 13.3622 1 17.8243V41.3784C1 43.5878 1.43517 45.7755 2.28068 47.8168C3.12618 49.858 4.36545 51.7127 5.92773 53.275C9.0829 56.4301 13.3622 58.2027 17.8243 58.2027H38.8884" stroke="#A1A3AB" stroke-width="1.5" stroke-linecap="round" stroke-linejoin="round"/>
<path d="M1.875 46.4257L11.0947 35.6581C12.3055 34.4555 13.8947 33.7082 15.5931 33.5427C17.2916 33.3771 18.9952 33.8035 20.4154 34.7496C21.8357 35.6957 23.5392 36.122 25.2377 35.9565C26.9361 35.7909 28.5253 35.0436 29.7361 33.8411L37.5762 26.0009C39.829 23.7405 42.8116 22.3541 45.9919 22.0891C49.1721 21.8241 52.3431 22.6977 54.9389 24.554L63.2501 30.9809M18.6993 23.4436C19.4328 23.4392 20.1583 23.2904 20.8343 23.0056C21.5103 22.7208 22.1236 22.3056 22.6391 21.7838C23.1547 21.262 23.5624 20.6438 23.839 19.9644C24.1157 19.285 24.2558 18.5578 24.2514 17.8243C24.2469 17.0908 24.0981 16.3653 23.8133 15.6893C23.5285 15.0133 23.1134 14.4001 22.5916 13.8845C22.0697 13.3689 21.4515 12.9612 20.7721 12.6846C20.0928 12.408 19.3655 12.2679 18.632 12.2723C17.1506 12.2812 15.7334 12.8783 14.6922 13.9321C13.651 14.9859 13.0711 16.4102 13.08 17.8916C13.0889 19.373 13.686 20.7902 14.7398 21.8314C15.7936 22.8726 17.2179 23.4526 18.6993 23.4436Z" stroke="#A1A3AB" stroke-width="1.5" stroke-linecap="round" stroke-linejoin="round"/>
<path d="M54.6934 39.696V56.5203" stroke="#A1A3AB" stroke-width="1.5" stroke-miterlimit="10" stroke-linecap="round"/>
<path d="M62.4086 46.779L55.7899 40.1603C55.6465 40.015 55.4757 39.8997 55.2874 39.8209C55.0991 39.7422 54.897 39.7017 54.6929 39.7017C54.4888 39.7017 54.2868 39.7422 54.0985 39.8209C53.9101 39.8997 53.7393 40.015 53.596 40.1603L46.9773 46.779" stroke="#A1A3AB" stroke-width="1.5" stroke-linecap="round" stroke-linejoin="round"/>
</svg>