<svg width="28" height="28" viewBox="0 0 28 28" fill="none" xmlns="http://www.w3.org/2000/svg">
<path d="M26.2078 0H1.53047C0.685214 0 0 0.685214 0 1.53047V26.2078C0 27.0531 0.685214 27.7383 1.53047 27.7383H26.2078C27.0531 27.7383 27.7383 27.0531 27.7383 26.2078V1.53047C27.7383 0.685214 27.0531 0 26.2078 0Z" fill="#3D5A98"/>
<path d="M19.1366 27.7361V16.9947H22.7413L23.2804 12.8087H19.1366V10.1368C19.1366 8.92512 19.4741 8.09778 21.2108 8.09778H23.428V4.34778C22.3544 4.23589 21.2754 4.18268 20.196 4.18841C17.0038 4.18841 14.8054 6.13372 14.8054 9.722V12.8087H11.2007V16.9947H14.8054V27.7361H19.1366Z" fill="white"/>
</svg>
