<svg width="26" height="25" viewBox="0 0 26 25" fill="none" xmlns="http://www.w3.org/2000/svg">
<path d="M25.4952 10.0519H24.4883V10H13.2383V15H20.3027C19.272 17.9106 16.5027 20 13.2383 20C9.09641 20 5.73828 16.6419 5.73828 12.5C5.73828 8.35812 9.09641 5 13.2383 5C15.1502 5 16.8895 5.72125 18.2139 6.89937L21.7495 3.36375C19.517 1.28312 16.5308 0 13.2383 0C6.33516 0 0.738281 5.59688 0.738281 12.5C0.738281 19.4031 6.33516 25 13.2383 25C20.1414 25 25.7383 19.4031 25.7383 12.5C25.7383 11.6619 25.652 10.8438 25.4952 10.0519Z" fill="#FFC107"/>
<path d="M2.17969 6.68188L6.28656 9.69375C7.39781 6.9425 10.0891 5 13.2384 5C15.1503 5 16.8897 5.72125 18.2141 6.89937L21.7497 3.36375C19.5172 1.28312 16.5309 0 13.2384 0C8.43719 0 4.27344 2.71062 2.17969 6.68188Z" fill="#FF3D00"/>
<path d="M13.2382 24.9999C16.467 24.9999 19.4007 23.7643 21.6189 21.7549L17.7501 18.4812C16.4529 19.4677 14.8679 20.0012 13.2382 19.9999C9.98698 19.9999 7.22636 17.9268 6.18636 15.0337L2.11011 18.1743C4.17886 22.2224 8.38011 24.9999 13.2382 24.9999Z" fill="#4CAF50"/>
<path d="M25.4952 10.0519H24.4883V10H13.2383V15H20.3027C19.8097 16.3853 18.9216 17.5957 17.7483 18.4819L17.7502 18.4806L21.6189 21.7544C21.3452 22.0031 25.7383 18.75 25.7383 12.5C25.7383 11.6619 25.652 10.8438 25.4952 10.0519Z" fill="#1976D2"/>
</svg>
