<svg width="36" height="36" viewBox="0 0 36 36" fill="none" xmlns="http://www.w3.org/2000/svg">
<rect width="36" height="36" rx="8" fill="#FF6767"/>
<path d="M13 11.875C13 10.5821 13.5136 9.34209 14.4279 8.42785C15.3421 7.51361 16.5821 7 17.875 7C19.1679 7 20.4079 7.51361 21.3221 8.42785C22.2364 9.34209 22.75 10.5821 22.75 11.875C22.75 14.7374 21.1364 18.8105 20.1825 20.9669C19.7811 21.8769 18.8719 22.4375 17.875 22.4375C16.8789 22.4375 15.9697 21.8769 15.5675 20.9669C14.6128 18.8105 13 14.7366 13 11.875ZM17.875 29.75C18.6292 29.75 19.3525 29.4504 19.8858 28.9171C20.4191 28.3838 20.7188 27.6605 20.7188 26.9062C20.7188 26.152 20.4191 25.4287 19.8858 24.8954C19.3525 24.3621 18.6292 24.0625 17.875 24.0625C17.1208 24.0625 16.3975 24.3621 15.8642 24.8954C15.3309 25.4287 15.0312 26.152 15.0312 26.9062C15.0312 27.6605 15.3309 28.3838 15.8642 28.9171C16.3975 29.4504 17.1208 29.75 17.875 29.75Z" fill="white"/>
</svg>
