<svg width="16" height="6" viewBox="0 0 16 6" fill="none" xmlns="http://www.w3.org/2000/svg">
<path d="M2.57444 4.64007C3.44398 4.64007 4.14888 3.82522 4.14888 2.82004C4.14888 1.81486 3.44398 1 2.57444 1C1.7049 1 1 1.81486 1 2.82004C1 3.82522 1.7049 4.64007 2.57444 4.64007Z" stroke="#A1A3AB"/>
<path d="M8.08518 4.64007C8.95472 4.64007 9.65963 3.82522 9.65963 2.82004C9.65963 1.81486 8.95472 1 8.08518 1C7.21564 1 6.51074 1.81486 6.51074 2.82004C6.51074 3.82522 7.21564 4.64007 8.08518 4.64007Z" stroke="#A1A3AB"/>
<path d="M13.5954 4.64007C14.465 4.64007 15.1699 3.82522 15.1699 2.82004C15.1699 1.81486 14.465 1 13.5954 1C12.7259 1 12.021 1.81486 12.021 2.82004C12.021 3.82522 12.7259 4.64007 13.5954 4.64007Z" stroke="#A1A3AB"/>
</svg>
