<svg width="17" height="16" viewBox="0 0 17 16" fill="none" xmlns="http://www.w3.org/2000/svg">
<path fill-rule="evenodd" clip-rule="evenodd" d="M6.96208 0.712191C5.88055 0.790068 4.83333 1.12545 3.90779 1.69037C2.98224 2.25528 2.20521 3.03334 1.64152 3.95963C1.07783 4.88593 0.743827 5.93359 0.66738 7.01522C0.590933 8.09685 0.774257 9.18107 1.20206 10.1774C1.62986 11.1738 2.28973 12.0534 3.12662 12.7429C3.96351 13.4324 4.95314 13.9117 6.01296 14.141C7.07279 14.3702 8.17206 14.3426 9.21907 14.0606C10.2661 13.7786 11.2305 13.2503 12.0318 12.5197L15.1554 15.2242C15.3164 15.3588 15.5237 15.4247 15.7328 15.4078C15.9419 15.391 16.136 15.2926 16.2733 15.1341C16.4106 14.9755 16.4801 14.7693 16.4669 14.56C16.4537 14.3506 16.3587 14.1548 16.2026 14.0148L13.0789 11.3103C13.7953 10.2535 14.1998 9.01631 14.2459 7.74037C14.292 6.46443 13.978 5.20128 13.3398 4.09547C12.7016 2.98967 11.7649 2.08588 10.637 1.48755C9.50912 0.88922 8.23556 0.620516 6.96208 0.712191ZM2.26328 7.8677C2.16435 6.49212 2.61591 5.13359 3.51863 4.09096C4.42135 3.04833 5.70128 2.407 7.07686 2.30807C8.45243 2.20914 9.81096 2.6607 10.8536 3.56342C11.8962 4.46614 12.5376 5.74608 12.6365 7.12165C12.7354 8.49722 12.2839 9.85575 11.3811 10.8984C10.4784 11.941 9.19848 12.5823 7.82291 12.6813C6.44733 12.7802 5.0888 12.3286 4.04617 11.4259C3.00353 10.5232 2.36221 9.24327 2.26328 7.8677Z" fill="white"/>
</svg>
