<svg width="29" height="27" viewBox="0 0 29 27" fill="none" xmlns="http://www.w3.org/2000/svg">
<path d="M4.73828 0C2.53203 0 0.738281 1.72969 0.738281 3.85714V23.1429C0.738281 25.2703 2.53203 27 4.73828 27H24.7383C26.9445 27 28.7383 25.2703 28.7383 23.1429V3.85714C28.7383 1.72969 26.9445 0 24.7383 0H4.73828ZM23.307 5.0625L16.8195 12.2103L24.4508 21.9375H18.4758L13.8008 16.0373L8.44453 21.9375H5.47578L12.4133 14.2895L5.09453 5.0625H11.2195L15.4508 10.4565L20.3383 5.0625H23.307ZM20.9445 20.2259L10.3258 6.68371H8.55703L19.2945 20.2259H20.9383H20.9445Z" fill="black"/>
</svg>
